<svg id="eD682npUzLZ1" xmlns="http://www.w3.org/2000/svg" xmlns:xlink="http://www.w3.org/1999/xlink" viewBox="0 0 567 440" shape-rendering="geometricPrecision" text-rendering="geometricPrecision"><g transform="matrix(.108298 0 0-.106932 0 440)"><path d="M2684,3146c-207-40-385-160-505-339-64-96-75-105-124-106-47-1-146-54-191-102-89-95-113-239-60-356c50-108,136-173,257-192c35-6,65-14,67-19c14-44,91-150,152-212c93-92,176-142,300-180c242-73,394-64,595,34c145,72,262,180,337,313c25,45,35,53,66,58c65,10,114,26,151,49c165,105,208,306,101,469-53,79-132,124-251,142-29,4-40,13-59,48-51,91-132,183-226,255-55,42-194,107-269,127-84,22-254,27-341,11Zm299-121c177-37,361-184,444-355c55-114,68-173,67-305-2-130-28-225-93-334-43-73-153-191-177-191-11,0-14,23-14,123v122l35,28c82,65,133,188,122,293-24,233-274,367-486,260l-49-24-49,24c-167,83-372,20-452-140-68-138-42-288,70-397l49-48v-120c0-97-3-121-14-121-8,0-45,33-83,74-196,210-241,494-119,752c37,78,58,107,128,177c94,94,181,146,300,177c89,23,226,25,321,5Zm-257-461c16-10,47-35,70-56l40-38l22,30c74,100,227,117,319,37c109-96,93-278-31-351l-44-26-4-189c-4-219-4-220-97-248-79-24-266-24-343,0-88,27-93,41-90,259l2,177-39,20c-158,81-159,303-1,384c47,24,64,28,111,24c31-3,69-13,85-23Zm-663-26c-11-56-10-270,1-330l8-48-33,12c-80,27-135,97-146,187-5,42-1,59,21,105c33,67,89,113,139,115c17,1,18-4,10-41Zm1614,13c54-39,83-89,90-154c10-97-30-168-118-212-48-25-67-21-55,11c3,8,10,51,16,97c9,78,4,163-15,255-7,29-5,32,17,32c14,0,43-13,65-29Z" fill="rgba(14,14,14,0.97)"/><path d="M2736,2274c-53-81-55-68,22-114l70-41l71,44l70,44-29,46c-16,26-31,47-33,47s-18-11-36-25l-34-24-43,24-43,24-15-25Z"/><path d="M3505,1355h-110-110"/></g><line x1="-27.91383" y1="0" x2="6.08617" y2="0" transform="translate(318.110405 239.155593)" fill="none" stroke="rgba(16,16,16,0.97)" stroke-width="3"/></svg>
